<?xml version="1.0" standalone="no"?>
<!DOCTYPE svg PUBLIC "-//W3C//DTD SVG 20010904//EN"
 "http://www.w3.org/TR/2001/REC-SVG-20010904/DTD/svg10.dtd">
<svg version="1.0" xmlns="http://www.w3.org/2000/svg"
 width="800.000000pt" height="800.000000pt" viewBox="0 0 800.000000 800.000000"
 preserveAspectRatio="xMidYMid meet">
<metadata>
Created by potrace 1.11, written by Peter Selinger 2001-2013
</metadata>
<g transform="translate(0.000000,800.000000) scale(0.100000,-0.100000)"
fill="#000000" stroke="none">
<path d="M0 4000 l0 -4000 4000 0 4000 0 0 4000 0 4000 -4000 0 -4000 0 0
-4000z m4512 2305 c187 -20 253 -31 393 -71 116 -32 298 -93 340 -114 11 -5
56 -23 100 -40 109 -43 171 -79 300 -176 333 -249 487 -475 600 -879 58 -206
92 -457 81 -599 -25 -323 -128 -569 -353 -837 -187 -224 -472 -438 -711 -538
-190 -78 -285 -101 -417 -101 -121 0 -205 27 -294 94 -19 14 -41 26 -49 26 -7
0 -64 -20 -125 -44 -392 -153 -639 -165 -903 -41 -56 26 -102 42 -109 37 -7
-4 -100 -86 -207 -183 -489 -444 -677 -599 -1008 -825 -182 -125 -220 -148
-350 -216 -291 -153 -562 -215 -824 -190 -247 24 -364 91 -420 242 -48 131
-55 261 -20 405 19 79 28 102 85 216 118 240 314 503 488 656 226 198 634 464
926 603 180 86 403 190 480 223 98 42 527 228 570 247 22 10 62 26 88 36 35
14 72 43 130 102 129 132 210 185 459 301 72 33 260 107 344 135 60 20 68 33
89 151 35 201 -51 367 -226 435 -59 23 -77 25 -224 25 -132 -1 -177 -5 -260
-24 -101 -24 -266 -78 -340 -111 -22 -10 -69 -30 -105 -45 -231 -97 -585 -315
-729 -450 -67 -62 -163 -189 -203 -270 -67 -131 -92 -307 -53 -372 37 -63 146
-64 297 -3 40 16 75 30 77 30 11 0 -50 -57 -102 -96 -69 -52 -190 -100 -273
-109 -92 -11 -143 15 -179 89 -26 53 -27 61 -23 178 5 136 18 187 89 335 126
264 402 559 672 717 90 52 289 156 301 156 3 0 34 13 68 29 217 99 356 145
578 191 86 18 384 25 453 10 95 -19 230 -93 301 -164 122 -121 170 -258 168
-481 -1 -77 -3 -151 -4 -165 l-3 -25 142 -7 c152 -7 227 -23 305 -65 l47 -25
48 30 c218 140 339 182 528 181 55 0 131 -6 170 -13 61 -12 74 -19 106 -54 36
-41 63 -109 75 -189 8 -50 -7 -57 -37 -19 -11 13 -40 35 -67 48 -41 20 -62 23
-164 23 l-117 0 -167 -84 c-91 -46 -168 -90 -171 -98 -3 -8 8 -44 25 -81 40
-87 67 -177 87 -281 32 -173 13 -299 -71 -466 -80 -162 -196 -310 -306 -392
-74 -54 -66 -67 35 -60 86 6 97 9 205 59 206 93 513 376 675 622 79 122 153
277 189 400 40 133 49 319 24 447 -47 235 -176 494 -392 784 -266 359 -595
535 -1163 621 -232 35 -697 0 -935 -71 -27 -8 -56 -15 -63 -15 -27 0 -12 26
30 51 131 79 301 138 452 158 112 14 398 12 547 -4z m2865 -932 c23 -35 21
-97 -4 -148 -30 -57 -139 -173 -180 -190 -48 -20 -114 -3 -148 37 -45 53 -30
184 28 246 44 47 139 79 239 81 41 1 50 -3 65 -26z m-410 -673 c56 -25 71 -56
55 -116 -17 -64 -54 -118 -147 -214 -95 -98 -156 -185 -225 -321 -67 -134 -95
-217 -114 -339 -26 -160 -24 -246 8 -307 32 -63 65 -90 122 -99 106 -16 325
68 450 172 109 91 315 278 352 320 25 29 35 35 45 25 15 -15 -11 -66 -122
-231 -179 -267 -324 -436 -441 -511 -130 -85 -270 -115 -387 -85 -185 47 -279
164 -312 386 -33 233 24 496 172 796 71 143 184 319 249 390 48 53 145 129
180 143 36 15 69 12 115 -9z"/>
<path d="M4445 4569 c-27 -7 -38 -23 -90 -136 -91 -198 -226 -459 -285 -553
-81 -129 -229 -319 -438 -559 l-73 -84 28 -30 c55 -58 102 -71 258 -71 126 -1
149 2 230 28 174 54 268 88 309 112 19 11 19 13 -6 65 -67 144 -98 282 -98
441 0 175 41 316 131 453 54 83 187 227 249 270 22 15 40 31 40 35 0 9 -162
41 -200 39 -14 0 -39 -5 -55 -10z"/>
<path d="M3995 4509 c-294 -106 -490 -250 -589 -430 -83 -154 -99 -213 -104
-381 -4 -141 -3 -149 21 -202 14 -31 32 -56 40 -56 8 0 39 28 68 62 30 35 75
85 100 113 66 73 187 219 252 304 52 69 163 275 216 401 13 30 29 69 36 85 26
61 48 126 44 129 -2 2 -40 -10 -84 -25z"/>
<path d="M4870 4347 c-125 -98 -220 -226 -268 -359 -23 -65 -26 -88 -26 -208
0 -119 3 -142 24 -195 30 -76 78 -155 95 -155 25 0 156 133 209 214 130 195
168 346 130 520 -16 73 -80 216 -99 223 -6 2 -35 -16 -65 -40z"/>
<path d="M3095 4082 c-40 -25 -113 -65 -275 -152 -74 -40 -164 -89 -200 -110
-36 -20 -90 -51 -120 -67 -132 -73 -498 -293 -550 -332 -48 -35 -271 -213
-350 -280 -236 -199 -477 -435 -572 -561 -141 -188 -225 -394 -204 -501 10
-58 55 -110 122 -144 55 -27 67 -30 169 -30 91 0 126 5 205 29 97 28 304 127
490 233 58 33 135 76 171 96 198 107 601 432 1011 814 l178 165 -19 27 c-83
119 -121 243 -121 396 0 138 30 276 80 375 27 53 23 65 -15 42z"/>
</g>
</svg>
